<svg xmlns="http://www.w3.org/2000/svg" xml:space="preserve" viewBox="0 0 400 400"><g aria-label="GBS t day" style="font-size:114.26px;font-family:&quot;Google Sans&quot;;-inkscape-font-specification:&quot;Google Sans, Normal&quot;;letter-spacing:.79375px;stroke-width:3.175;stroke-linecap:round;stroke-linejoin:round;stroke-miterlimit:.5;paint-order:stroke fill markers"><path d="M95.02 171.046q-8.797 0-16.681-3.2-7.77-3.198-13.826-8.911-5.941-5.713-9.369-13.483-3.314-7.884-3.314-17.14 0-9.254 3.314-17.024 3.428-7.884 9.37-13.597 5.94-5.713 13.71-8.912 7.884-3.2 16.797-3.2 9.826 0 17.71 3.428t13.483 9.484l-10.626 10.398q-2.628-2.857-5.713-4.685-3.085-1.942-6.742-2.97-3.656-1.03-8.227-1.03-5.598 0-10.626 2.058-4.913 1.942-8.798 5.713-3.77 3.656-5.941 8.798-2.171 5.141-2.171 11.54 0 6.398 2.17 11.54 2.172 5.142 5.942 8.912 3.885 3.657 8.913 5.713 5.027 1.943 10.74 1.943t10.17-1.6q4.455-1.6 7.54-4.342 3.2-2.742 5.028-6.056 1.942-3.427 2.513-6.97H94.678v-13.14h40.105q.343 1.143.572 3.429.228 2.285.228 3.77 0 9.027-3.085 16.34-2.97 7.312-8.455 12.568-5.37 5.142-12.797 7.884-7.427 2.742-16.225 2.742zm55.182-1.828v-81.81h31.993q7.084 0 12.683 2.97 5.713 2.857 9.027 7.656 3.313 4.799 3.313 10.74 0 6.399-3.2 10.855-3.084 4.456-7.769 6.741v.914q6.284 2.171 10.055 7.199 3.885 4.913 3.885 11.997 0 6.97-3.656 12.112-3.543 5.027-9.713 7.884-6.055 2.742-13.482 2.742zm8.57-35.192v-13.254h22.28q3.543 0 5.942-1.257 2.514-1.371 3.77-3.657 1.372-2.285 1.372-4.913 0-2.742-1.257-4.913-1.257-2.17-3.656-3.428-2.4-1.37-5.713-1.37h-15.883v53.93h17.14q3.884 0 6.512-1.371 2.628-1.371 4-3.77 1.37-2.4 1.37-5.371 0-3.085-1.37-5.484-1.372-2.4-4.114-3.771t-6.856-1.371zm89.002 37.02q-6.97 0-13.14-2.628-6.055-2.628-10.626-7.77-4.456-5.256-6.741-12.797l14.511-5.713q1.6 6.056 5.599 10.17 3.999 4.113 10.512 4.113 3.199 0 6.055-1.029 2.857-1.142 4.57-3.313 1.829-2.171 1.829-5.37 0-3.085-1.485-5.256-1.486-2.285-5.028-4.228-3.428-2.057-9.37-4.228l-5.027-1.828q-3.313-1.257-6.741-3.085-3.313-1.942-6.17-4.684-2.742-2.857-4.456-6.513-1.714-3.656-1.714-8.341 0-6.399 3.314-11.54 3.313-5.256 9.255-8.341 5.941-3.085 13.825-3.085 8.227 0 13.597 2.856 5.37 2.742 8.34 6.741 3.086 4 4.343 7.77l-13.597 5.713q-.686-2.285-2.285-4.342-1.6-2.056-4.114-3.313-2.513-1.257-6.055-1.257-3.314 0-5.942 1.142-2.628 1.029-4.113 2.971-1.486 1.828-1.486 4.342 0 3.656 3.085 6.284 3.2 2.628 10.17 4.914l5.141 1.713q4.342 1.486 8.227 3.543 3.999 1.942 7.084 4.913 3.085 2.97 4.799 7.084 1.828 4.113 1.828 9.826 0 6.284-2.514 10.97-2.513 4.684-6.627 7.655-4.113 2.97-9.14 4.456-4.914 1.485-9.713 1.485z"/><path d="M49.545 266.567V253.77h10.74v12.797zm29.48 46.39q-9.027 0-14.169-5.142-5.142-5.256-5.142-14.396v-56.102h14.968v53.36q0 4.227 1.714 6.284 1.714 1.942 5.6 1.942 1.827 0 3.427-.457 1.6-.571 3.999-2.057v14.626q-2.514.914-5.142 1.37-2.513.572-5.256.572zm-4.914-46.39V253.77h14.854v12.797zm115.216 47.304q-7.999 0-14.397-3.885-6.399-3.999-10.17-10.969-3.656-6.97-3.656-16.11 0-9.141 3.657-16.111 3.77-6.97 10.169-10.855 6.398-3.999 14.397-3.999 4.227 0 7.655 1.257t5.942 3.314q2.513 2.056 3.884 4.341h.914l-.914-8.226v-22.395h14.854v81.81h-13.94v-6.97h-.914q-1.37 2.285-3.884 4.342-2.514 1.942-5.942 3.2-3.428 1.256-7.655 1.256zm2.513-13.825q4.228 0 7.77-2.171 3.656-2.171 5.827-5.942 2.285-3.885 2.285-9.026 0-5.142-2.285-8.913-2.17-3.885-5.827-5.941-3.542-2.171-7.77-2.171-4.113 0-7.77 2.17-3.541 2.057-5.827 5.828-2.17 3.77-2.17 9.027 0 5.141 2.17 9.026 2.286 3.885 5.828 6.056 3.656 2.057 7.77 2.057zm65.333 13.825q-6.17 0-10.97-2.4-4.684-2.513-7.426-6.97-2.742-4.455-2.742-10.283 0-6.055 3.085-10.397 3.199-4.342 8.455-6.742 5.37-2.4 11.883-2.4 3.542 0 6.399.458 2.97.343 5.256.914 2.285.571 3.77 1.257v-2.514q0-4.685-3.542-7.655-3.542-3.085-9.712-3.085-4.113 0-7.998 1.942-3.77 1.828-6.285 4.913l-9.597-7.54q2.856-3.657 6.627-6.17 3.77-2.629 8.34-3.886 4.571-1.37 9.598-1.37 13.369 0 20.339 6.17 6.97 6.17 6.97 18.052v35.878h-14.74V306.1h-.914q-1.6 2.057-4 3.885-2.399 1.714-5.598 2.742-3.2 1.143-7.198 1.143zm3.542-11.654q4.57 0 7.655-1.943 3.2-2.057 4.8-5.256 1.713-3.2 1.713-6.741-2.514-1.257-5.713-1.943-3.2-.8-6.513-.8-6.627 0-9.14 2.514-2.514 2.514-2.514 6.17 0 3.428 2.4 5.713 2.513 2.286 7.312 2.286zm67.16 31.878q-.342.8-.685 1.371-.229.686-.457 1.257h-16.11q.456-.914 1.713-3.885 1.371-2.856 2.285-4.913.686-1.371 1.6-3.542l1.828-4.342 1.6-3.2 8.798-19.538 3.085-7.312 14.51-36.22h16.683l-30.05 69.24q-1.258 2.972-2.286 5.143-.914 2.17-1.485 3.542-.572 1.485-1.029 2.4zm-3.999-22.966-25.365-57.359h17.024l15.083 36.22h1.713z" style="letter-spacing:3.175px"/></g><g style="stroke-width:1.20968"><path d="m231.359 196.641-87-52.203 52.188 87 27.844-6.969zM367.125 144 280.5 196.406l7 27.938 27.781 6.828zM280.828 315.344 368 367.219l-52.531-86.828-27.781 7.062zM144.359 367.656l87.188-52.344-7.031-27.671-27.969-6.969z" style="fill:#000;stroke-width:3.41397" transform="matrix(.1211 0 0 .1211 91.797 251.459)"/><g style="stroke-width:1.20968"><path d="M-293.494 273.315c-20.711 0-37.5 16.788-37.5 37.5 0 20.711 16.789 37.5 37.5 37.5 20.712 0 37.5-16.789 37.5-37.5 0-20.712-16.788-37.5-37.5-37.5zm0 69.14c-17.475 0-21.64-14.165-21.64-31.64 0-17.476 4.165-31.641 21.64-31.641s21.641 14.165 21.641 31.64c0 17.476-4.166 31.641-21.64 31.641z" style="fill:#000;stroke-width:1.58831;stroke-dasharray:none" transform="matrix(.82667 0 0 .82667 365.418 25.519)"/><path d="m-293.494 292.065-3.749 14.998-15 3.752 15.014 3.753 3.808 14.997 3.697-15.022 14.98-3.802-15.003-3.692zm0 21.093a2.345 2.345 0 0 1-2.343-2.343 2.345 2.345 0 0 1 2.343-2.344 2.345 2.345 0 0 1 2.344 2.344 2.345 2.345 0 0 1-2.344 2.343z" style="fill:#000;stroke-width:.500094" transform="matrix(.82667 0 0 .82667 365.418 25.519)"/></g></g><g style="fill:#000;stroke-width:3.175"><path d="M12 5c3.859.001 7 3.142 7 7.001 0 3.858-3.141 6.998-7 6.999-3.859 0-7-3.14-7-6.999 0-3.859 3.141-7 7-7.001m0-2a9 9 0 0 0 0 18 9 9 0 0 0 0-18Zm4.182 4.819a.498.498 0 0 0-.491-.127L9.74 9.398a.498.498 0 0 0-.342.343l-1.707 5.951a.496.496 0 0 0 .481.637l.138-.02 5.95-1.708a.498.498 0 0 0 .342-.343l1.707-5.949a.498.498 0 0 0-.127-.49zM8.9 15.101l1.383-4.817 3.434 3.435z" style="stroke-width:3.175" transform="matrix(2.77778 0 0 2.77778 295.396 111.897)"/></g><path d="M367.434 176.777v156.979c0 18.954-15.265 34.357-34.121 34.357H66.307c-18.809 0-34.122-15.403-34.122-34.357V66.506c0-18.93 15.313-34.333 34.122-34.333h157.031V10H58.722C31.876 10 10 31.959 10 58.948v282.104C10 368.017 31.876 390 58.722 390H341.23C368.124 390 390 368.017 390 341.052V176.777Z" class="si-glyph-fill" style="fill:#ccc;fill-rule:evenodd;stroke:none;stroke-width:12.451"/></svg>